<svg viewBox="-8 -8 16 16" xmlns="http://www.w3.org/2000/svg">
<style>
.cell-path {
                stroke-linejoin: round;
                fill: rgb(244, 244, 241);
                stroke: rgb(51, 51, 51);
                stroke-width: 0.1
            }
.dual .cell-path {
                fill: none;
                stroke: rgb(255, 0, 0);
                stroke-opacity: 0.5;
                stroke-width: 0.033333335
            }
.unmasked {
                opacity: 0.5
            }
</style>
<!-- (0, -20, 0) -->
<path class="cell-path" d="M0.0034570713 -0.005987811L0.001377328 -0.005140239L0.0020479169 -0.0035470887L0.0037629202 -0.003762914Z"/>
<!-- (0, -20, 1) -->
<path class="cell-path" d="M0.001377328 -0.005140239L3.9549275E-09 -0.004095827L0.0008159083 -0.003045L0.0020479169 -0.0035470887Z"/>
<!-- (0, -20, 2) -->
<path class="cell-path" d="M3.9549275E-09 -0.004095827L-0.0008159024 -0.0030450018L2.3428393E-09 -0.0024263063L0.0008159083 -0.003045Z"/>
<!-- (0, -20, 3) -->
<path class="cell-path" d="M-0.0008159024 -0.0030450018L-0.0012131509 -0.0021012442L-0.00048332827 -0.001803813L2.3428393E-09 -0.0024263063Z"/>
<!-- (0, -20, 4) -->
<path class="cell-path" d="M-0.0012131504 -0.0021012432L-0.0013204804 -0.0013204834L-0.000718652 -0.0012447448L-0.00048332807 -0.0018038122Z"/>
<!-- (0, -20, 5) -->
<path class="cell-path" d="M-0.0013204804 -0.0013204834L-0.0012447432 -0.0007186548L-0.0007822326 -0.0007822344L-0.000718652 -0.0012447448Z"/>
<!-- (0, -20, 6) -->
<path class="cell-path" d="M-0.0012447434 -0.00071865454L-0.0010685506 -0.00028631813L-0.00073736714 -0.00042572006L-0.0007822328 -0.0007822342Z"/>
<!-- (0, -20, 7) -->
<path class="cell-path" d="M-0.0010685505 -0.0002863184L-0.00085143873 -6.834316E-10L-0.00063299324 -0.00016961069L-0.00073736714 -0.00042572006Z"/>
<!-- (0, -20, 8) -->
<path class="cell-path" d="M-0.00085143873 -8.864304E-10L-0.0006329935 0.00016960951L-0.00050437945 -5.25108E-10L-0.00063299324 -0.00016961069Z"/>
<!-- (0, -20, 9) -->
<path class="cell-path" d="M-0.0006329933 0.00016960931L-0.00043680545 0.00025218923L-0.00037497564 0.00010047399L-0.0005043792 -5.2510774E-10Z"/>
<!-- (0, -20, 10) -->
<path class="cell-path" d="M-0.0004368055 0.00025218911L-0.00027450142 0.0002745009L-0.000258757 0.00014939303L-0.00037497564 0.00010047399Z"/>
<!-- (0, -20, 11) -->
<path class="cell-path" d="M-0.00027450148 0.0002745008L-0.00014939359 0.00025875669L-0.00016261046 0.00016261007L-0.000258757 0.00014939303Z"/>
<!-- (0, -19, 0) -->
<path class="cell-path" d="M0.002325056 -0.008677195L6.67628E-09 -0.006914132L0.001377328 -0.005140239L0.0034570713 -0.005987811Z"/>
<!-- (0, -19, 1) -->
<path class="cell-path" d="M6.67628E-09 -0.006914132L-0.0013773179 -0.0051402417L3.9549275E-09 -0.004095827L0.001377328 -0.005140239Z"/>
<!-- (0, -19, 2) -->
<path class="cell-path" d="M-0.0013773179 -0.0051402417L-0.00204791 -0.0035470927L-0.0008159024 -0.0030450018L3.9549275E-09 -0.004095827Z"/>
<!-- (0, -19, 3) -->
<path class="cell-path" d="M-0.002047909 -0.003547091L-0.0022290917 -0.0022290968L-0.0012131504 -0.0021012432L-0.000815902 -0.0030450004Z"/>
<!-- (0, -19, 4) -->
<path class="cell-path" d="M-0.0022290917 -0.0022290968L-0.0021012404 -0.0012131551L-0.0013204804 -0.0013204834L-0.0012131504 -0.0021012432Z"/>
<!-- (0, -19, 5) -->
<path class="cell-path" d="M-0.0021012404 -0.0012131551L-0.0018038112 -0.0004833321L-0.0012447432 -0.0007186548L-0.0013204804 -0.0013204834Z"/>
<!-- (0, -19, 6) -->
<path class="cell-path" d="M-0.0018038113 -0.00048333168L-0.0014373066 -1.1536951E-09L-0.0010685505 -0.0002863184L-0.0012447434 -0.00071865454Z"/>
<!-- (0, -19, 7) -->
<path class="cell-path" d="M-0.0014373066 -1.4963758E-09L-0.0010685511 0.0002863164L-0.00085143873 -8.864304E-10L-0.0010685505 -0.0002863184Z"/>
<!-- (0, -19, 8) -->
<path class="cell-path" d="M-0.0010685506 0.00028631606L-0.0007373676 0.0004257185L-0.0006329933 0.00016960931L-0.0008514383 -8.8643E-10Z"/>
<!-- (0, -19, 9) -->
<path class="cell-path" d="M-0.0007373681 0.00042571852L-0.00046338377 0.0004633829L-0.0004368057 0.00025218923L-0.0006329936 0.00016960938Z"/>
<!-- (0, -19, 10) -->
<path class="cell-path" d="M-0.00046338365 0.00046338257L-0.00025219005 0.00043680496L-0.00027450148 0.0002745008L-0.0004368055 0.00025218911Z"/>
<!-- (0, -19, 11) -->
<path class="cell-path" d="M-0.00025219016 0.0004368049L-0.000100474834 0.0003749754L-0.00014939364 0.00025875666L-0.00027450148 0.0002745008Z"/>
<!-- (0, -18, 0) -->
<path class="cell-path" d="M5.7046785E-09 -0.011671688L-0.0023250433 -0.008677199L3.3793652E-09 -0.006914132L0.0023250517 -0.008677196Z"/>
<!-- (0, -18, 1) -->
<path class="cell-path" d="M-0.0023250433 -0.008677199L-0.0034570624 -0.0059878156L-0.0013773205 -0.0051402412L3.3793652E-09 -0.006914132Z"/>
<!-- (0, -18, 2) -->
<path class="cell-path" d="M-0.0034570624 -0.0059878156L-0.0037629148 -0.0037629195L-0.0020479115 -0.0035470915L-0.0013773205 -0.0051402412Z"/>
<!-- (0, -18, 3) -->
<path class="cell-path" d="M-0.0037629148 -0.0037629195L-0.003547089 -0.002047916L-0.002229094 -0.0022290968L-0.0020479115 -0.0035470915Z"/>
<!-- (0, -18, 4) -->
<path class="cell-path" d="M-0.0035470873 -0.002047915L-0.0030449987 -0.0008159074L-0.0021012411 -0.001213154L-0.0022290929 -0.0022290957Z"/>
<!-- (0, -18, 5) -->
<path class="cell-path" d="M-0.0030449987 -0.0008159074L-0.0024263053 -1.9475432E-09L-0.0018038114 -0.00048333124L-0.0021012411 -0.001213154Z"/>
<!-- (0, -18, 6) -->
<path class="cell-path" d="M-0.0024263053 -1.369067E-09L-0.001803812 0.00048332923L-0.0014373066 -8.110146E-10L-0.0018038115 -0.00048333083Z"/>
<!-- (0, -18, 7) -->
<path class="cell-path" d="M-0.001803812 0.00048332877L-0.0012447444 0.00071865274L-0.001068551 0.00028631667L-0.0014373066 -8.110146E-10Z"/>
<!-- (0, -18, 8) -->
<path class="cell-path" d="M-0.0012447445 0.0007186525L-0.0007822339 0.0007822331L-0.00073736784 0.00042571887L-0.001068551 0.00028631667Z"/>
<!-- (0, -18, 9) -->
<path class="cell-path" d="M-0.0007822337 0.0007822326L-0.00042571957 0.000737367L-0.00046338345 0.0004633828L-0.0007373675 0.00042571867Z"/>
<!-- (0, -18, 10) -->
<path class="cell-path" d="M-0.0004257197 0.0007373669L-0.00016961044 0.000632993L-0.00025218993 0.000436805L-0.00046338345 0.0004633828Z"/>
<!-- (0, -18, 11) -->
<path class="cell-path" d="M-0.00016961044 0.000632993L-3.8280726E-10 0.0005043792L-0.0001004747 0.00037497547L-0.00025218993 0.000436805Z"/>
<!-- (0, -17, 0) -->
<path class="cell-path" d="M-0.003924886 -0.014647906L-0.005835838 -0.010107982L-0.0023250433 -0.008677199L5.7046785E-09 -0.011671688Z"/>
<!-- (0, -17, 1) -->
<path class="cell-path" d="M-0.005835838 -0.010107982L-0.006352145 -0.006352153L-0.0034570624 -0.0059878156L-0.0023250433 -0.008677199Z"/>
<!-- (0, -17, 2) -->
<path class="cell-path" d="M-0.006352145 -0.006352153L-0.0059878114 -0.00345707L-0.0037629148 -0.0037629195L-0.0034570624 -0.0059878156Z"/>
<!-- (0, -17, 3) -->
<path class="cell-path" d="M-0.0059878086 -0.0034570685L-0.005140237 -0.0013773264L-0.0035470873 -0.002047915L-0.0037629132 -0.0037629178Z"/>
<!-- (0, -17, 4) -->
<path class="cell-path" d="M-0.005140237 -0.0013773264L-0.0040958254 -3.287631E-09L-0.0030449987 -0.0008159074L-0.0035470873 -0.002047915Z"/>
<!-- (0, -17, 5) -->
<path class="cell-path" d="M-0.0040958254 -3.287631E-09L-0.0030450001 0.0008159025L-0.0024263053 -1.9475432E-09L-0.0030449987 -0.0008159074Z"/>
<!-- (0, -17, 6) -->
<path class="cell-path" d="M-0.003045 0.00081590324L-0.0021012425 0.0012131517L-0.001803812 0.00048332877L-0.0024263053 -1.369067E-09Z"/>
<!-- (0, -17, 7) -->
<path class="cell-path" d="M-0.0021012428 0.0012131513L-0.0013204825 0.0013204812L-0.0012447445 0.0007186525L-0.001803812 0.00048332877Z"/>
<!-- (0, -17, 8) -->
<path class="cell-path" d="M-0.0013204821 0.0013204803L-0.00071865367 0.0012447431L-0.0007822337 0.0007822326L-0.0012447439 0.00071865215Z"/>
<!-- (0, -17, 9) -->
<path class="cell-path" d="M-0.00071865425 0.0012447435L-0.0002863181 0.0010685506L-0.00042571992 0.00073736726L-0.00078223407 0.00078223296Z"/>
<!-- (0, -17, 10) -->
<path class="cell-path" d="M-0.00028631795 0.0010685502L-6.462137E-10 0.0008514383L-0.00016961052 0.000632993L-0.0004257197 0.0007373669Z"/>
<!-- (0, -17, 11) -->
<path class="cell-path" d="M-6.462137E-10 0.0008514383L0.00016960948 0.00063299324L-4.4293394E-10 0.0005043792L-0.00016961052 0.000632993Z"/>
<!-- (0, -16, 0) -->
<path class="cell-path" d="M-0.00985143 -0.0170632L-0.010723002 -0.010723016L-0.005835838 -0.010107982L-0.003924886 -0.014647906Z"/>
<!-- (0, -16, 1) -->
<path class="cell-path" d="M-0.010723002 -0.010723016L-0.0101079745 -0.005835851L-0.006352145 -0.006352153L-0.005835838 -0.010107982Z"/>
<!-- (0, -16, 2) -->
<path class="cell-path" d="M-0.0101079745 -0.005835851L-0.008677196 -0.0023250543L-0.0059878114 -0.00345707L-0.006352145 -0.006352153Z"/>
<!-- (0, -16, 3) -->
<path class="cell-path" d="M-0.008677196 -0.0023250543L-0.006914132 -5.549825E-09L-0.0051402394 -0.001377327L-0.0059878114 -0.00345707Z"/>
<!-- (0, -16, 4) -->
<path class="cell-path" d="M-0.0069141285 -5.5498224E-09L-0.0051402394 0.0013773182L-0.0040958254 -3.287631E-09L-0.005140237 -0.0013773264Z"/>
<!-- (0, -16, 5) -->
<path class="cell-path" d="M-0.0051402394 0.0013773182L-0.0035470908 0.0020479094L-0.0030450001 0.0008159025L-0.0040958254 -3.287631E-09Z"/>
<!-- (0, -16, 6) -->
<path class="cell-path" d="M-0.00354709 0.0020479104L-0.0022290954 0.002229093L-0.0021012428 0.0012131513L-0.003045 0.00081590324Z"/>
<!-- (0, -16, 7) -->
<path class="cell-path" d="M-0.002229096 0.0022290926L-0.0012131538 0.0021012414L-0.0013204828 0.001320481L-0.0021012428 0.0012131513Z"/>
<!-- (0, -16, 8) -->
<path class="cell-path" d="M-0.0012131543 0.0021012411L-0.00048333118 0.0018038114L-0.00071865425 0.0012447435L-0.0013204828 0.001320481Z"/>
<!-- (0, -16, 9) -->
<path class="cell-path" d="M-0.00048333092 0.0018038105L-1.090868E-09 0.0014373059L-0.0002863181 0.0010685502L-0.0007186539 0.0012447429Z"/>
<!-- (0, -16, 10) -->
<path class="cell-path" d="M-1.090868E-09 0.0014373059L0.00028631635 0.0010685506L-7.4771306E-10 0.0008514383L-0.0002863181 0.0010685502Z"/>
<!-- (0, -16, 11) -->
<path class="cell-path" d="M0.00028631635 0.0010685506L0.00042571852 0.0007373676L0.00016960941 0.00063299324L-7.4771306E-10 0.0008514383Z"/>
<!-- (0, -15, 0) -->
<path class="cell-path" d="M-0.018101411 -0.018101433L-0.017063187 -0.009851452L-0.010723002 -0.010723016L-0.00985143 -0.0170632Z"/>
<!-- (0, -15, 1) -->
<path class="cell-path" d="M-0.017063187 -0.009851452L-0.0146479 -0.0039249044L-0.0101079745 -0.005835851L-0.010723002 -0.010723016Z"/>
<!-- (0, -15, 2) -->
<path class="cell-path" d="M-0.0146479 -0.0039249044L-0.011671688 -9.368613E-09L-0.008677196 -0.0023250543L-0.0101079745 -0.005835851Z"/>
<!-- (0, -15, 3) -->
<path class="cell-path" d="M-0.011671683 -9.368609E-09L-0.008677195 0.0023250391L-0.0069141285 -5.5498224E-09L-0.008677191 -0.002325053Z"/>
<!-- (0, -15, 4) -->
<path class="cell-path" d="M-0.008677195 0.0023250391L-0.005987814 0.003457059L-0.0051402394 0.0013773182L-0.0069141285 -5.5498224E-09Z"/>
<!-- (0, -15, 5) -->
<path class="cell-path" d="M-0.005987814 0.003457059L-0.0037629192 0.0037629118L-0.0035470908 0.0020479094L-0.0051402394 0.0013773182Z"/>
<!-- (0, -15, 6) -->
<path class="cell-path" d="M-0.0037629183 0.0037629127L-0.0020479145 0.0035470878L-0.002229096 0.0022290926L-0.00354709 0.0020479104Z"/>
<!-- (0, -15, 7) -->
<path class="cell-path" d="M-0.0020479155 0.0035470873L-0.0008159073 0.0030449987L-0.0012131543 0.0021012411L-0.002229096 0.0022290926Z"/>
<!-- (0, -15, 8) -->
<path class="cell-path" d="M-0.00081590685 0.0030449973L-1.8414851E-09 0.0024263042L-0.00048333115 0.0018038105L-0.0012131537 0.0021012402Z"/>
<!-- (0, -15, 9) -->
<path class="cell-path" d="M-1.841486E-09 0.0024263053L0.00048332845 0.0018038121L-1.2622088E-09 0.0014373066L-0.0004833314 0.0018038114Z"/>
<!-- (0, -15, 10) -->
<path class="cell-path" d="M0.00048332821 0.0018038113L0.0007186519 0.0012447442L0.0002863162 0.0010685506L-1.2622082E-09 0.0014373059Z"/>
<!-- (0, -15, 11) -->
<path class="cell-path" d="M0.0007186519 0.0012447442L0.00078223244 0.0007822339L0.00042571843 0.00073736766L0.0002863162 0.0010685506Z"/>
<!-- (0, -14, 0) -->
<path class="cell-path" d="M-0.028804224 -0.016630145L-0.024727 -0.006625587L-0.01706319 -0.009851448L-0.018101415 -0.01810143Z"/>
<!-- (0, -14, 1) -->
<path class="cell-path" d="M-0.024727 -0.006625593L-0.01970288 -6.4200134E-09L-0.014647901 -0.0039249016L-0.01706319 -0.009851448Z"/>
<!-- (0, -14, 2) -->
<path class="cell-path" d="M-0.01970288 -1.1117546E-08L-0.014647905 0.003924888L-0.011671688 -6.5858665E-09L-0.014647901 -0.0039249016Z"/>
<!-- (0, -14, 3) -->
<path class="cell-path" d="M-0.014647905 0.003924888L-0.010107981 0.0058358395L-0.008677198 0.0023250447L-0.011671688 -3.803119E-09Z"/>
<!-- (0, -14, 4) -->
<path class="cell-path" d="M-0.010107976 0.0058358368L-0.006352149 0.0063521424L-0.0059878123 0.0034570615L-0.008677194 0.0023250435Z"/>
<!-- (0, -14, 5) -->
<path class="cell-path" d="M-0.006352149 0.0063521424L-0.0034570675 0.005987809L-0.0037629174 0.0037629134L-0.0059878123 0.0034570615Z"/>
<!-- (0, -14, 6) -->
<path class="cell-path" d="M-0.0034570675 0.005987809L-0.001377325 0.0051402375L-0.0020479145 0.0035470878L-0.0037629174 0.0037629134Z"/>
<!-- (0, -14, 7) -->
<path class="cell-path" d="M-0.001377325 0.0051402375L-2.132076E-09 0.0040958254L-0.0008159069 0.003044999L-0.0020479145 0.0035470878Z"/>
<!-- (0, -14, 8) -->
<path class="cell-path" d="M-2.132076E-09 0.0040958254L0.00081590336 0.003045L-1.5522479E-09 0.0024263053L-0.0008159069 0.003044999Z"/>
<!-- (0, -14, 9) -->
<path class="cell-path" d="M0.00081590295 0.0030449983L0.0012131508 0.0021012418L0.00048332842 0.0018038112L-1.5522471E-09 0.0024263042Z"/>
<!-- (0, -14, 10) -->
<path class="cell-path" d="M0.0012131508 0.0021012418L0.0013204803 0.001320482L0.00071865204 0.001244744L0.00048332842 0.0018038112Z"/>
<!-- (0, -14, 11) -->
<path class="cell-path" d="M0.0013204803 0.001320482L0.0012447429 0.0007186539L0.00078223256 0.0007822338L0.00071865204 0.001244744Z"/>
<!-- (0, -13, 0) -->
<path class="cell-path" d="M-0.041741442 -0.011184609L-0.033260264 -1.083757E-08L-0.024727 -0.006625593L-0.028804224 -0.016630145Z"/>
<!-- (0, -13, 1) -->
<path class="cell-path" d="M-0.033260264 -1.8767434E-08L-0.024727006 0.0066255713L-0.01970288 -1.1117546E-08L-0.024727 -0.006625593Z"/>
<!-- (0, -13, 2) -->
<path class="cell-path" d="M-0.024727002 0.0066255634L-0.017063193 0.00985143L-0.014647899 0.003924883L-0.019702874 -1.1117542E-08Z"/>
<!-- (0, -13, 3) -->
<path class="cell-path" d="M-0.017063191 0.009851428L-0.01072301 0.0107229985L-0.010107976 0.0058358368L-0.014647898 0.0039248867Z"/>
<!-- (0, -13, 4) -->
<path class="cell-path" d="M-0.01072301 0.0107229985L-0.005835847 0.010107971L-0.006352149 0.0063521424L-0.010107976 0.0058358368Z"/>
<!-- (0, -13, 5) -->
<path class="cell-path" d="M-0.005835847 0.010107971L-0.0023250508 0.008677191L-0.0034570675 0.005987809L-0.006352149 0.0063521424Z"/>
<!-- (0, -13, 6) -->
<path class="cell-path" d="M-0.0023250508 0.008677191L-3.5991397E-09 0.0069141285L-0.0013773256 0.0051402375L-0.0034570675 0.005987809Z"/>
<!-- (0, -13, 7) -->
<path class="cell-path" d="M-3.5991397E-09 0.0069141285L0.0013773196 0.005140239L-2.6203364E-09 0.0040958254L-0.0013773256 0.0051402375Z"/>
<!-- (0, -13, 8) -->
<path class="cell-path" d="M0.0013773189 0.005140236L0.0020479097 0.0035470887L0.00081590266 0.0030449983L-2.6203353E-09 0.0040958235Z"/>
<!-- (0, -13, 9) -->
<path class="cell-path" d="M0.0020479106 0.00354709L0.0022290926 0.0022290957L0.001213151 0.002101243L0.00081590307 0.003045Z"/>
<!-- (0, -13, 10) -->
<path class="cell-path" d="M0.0022290917 0.0022290945L0.0021012402 0.0012131537L0.0013204801 0.0013204822L0.0012131504 0.002101242Z"/>
<!-- (0, -13, 11) -->
<path class="cell-path" d="M0.00210124 0.0012131538L0.0018038105 0.00048333115L0.0012447429 0.000718654L0.00132048 0.0013204822Z"/>
<!-- (0, -12, 0) -->
<path class="cell-path" d="M-0.056146376 -1.8294813E-08L-0.041741453 0.011184571L-0.033260264 -1.083757E-08L-0.041741446 -0.011184598Z"/>
<!-- (0, -12, 1) -->
<path class="cell-path" d="M-0.041741453 0.011184571L-0.02880424 0.016630119L-0.024727006 0.0066255713L-0.033260264 -1.083757E-08Z"/>
<!-- (0, -12, 2) -->
<path class="cell-path" d="M-0.028804233 0.016630115L-0.018101428 0.01810141L-0.017063193 0.00985143L-0.024727 0.00662557Z"/>
<!-- (0, -12, 3) -->
<path class="cell-path" d="M-0.018101428 0.01810141L-0.009851446 0.017063184L-0.01072301 0.0107229985L-0.017063193 0.00985143Z"/>
<!-- (0, -12, 4) -->
<path class="cell-path" d="M-0.0098514445 0.017063182L-0.003924899 0.014647895L-0.005835847 0.010107971L-0.01072301 0.0107229985Z"/>
<!-- (0, -12, 5) -->
<path class="cell-path" d="M-0.003924899 0.014647895L-6.0756777E-09 0.011671683L-0.0023250517 0.008677191L-0.005835847 0.010107971Z"/>
<!-- (0, -12, 6) -->
<path class="cell-path" d="M-3.2929315E-09 0.011671683L0.0023250438 0.008677194L-2.7749112E-09 0.0069141285L-0.0023250496 0.008677192Z"/>
<!-- (0, -12, 7) -->
<path class="cell-path" d="M0.0023250438 0.008677194L0.003457062 0.0059878123L0.0013773203 0.0051402384L-2.7749112E-09 0.0069141285Z"/>
<!-- (0, -12, 8) -->
<path class="cell-path" d="M0.003457062 0.0059878123L0.0037629139 0.003762917L0.0020479108 0.0035470899L0.0013773203 0.0051402384Z"/>
<!-- (0, -12, 9) -->
<path class="cell-path" d="M0.0037629118 0.003762915L0.0035470861 0.0020479134L0.002229092 0.0022290945L0.00204791 0.0035470885Z"/>
<!-- (0, -12, 10) -->
<path class="cell-path" d="M0.003547086 0.0020479138L0.0030449973 0.0008159066L0.0021012402 0.0012131534L0.0022290917 0.0022290945Z"/>
<!-- (0, -12, 11) -->
<path class="cell-path" d="M0.0030449973 0.0008159067L0.0024263042 1.5908089E-09L0.0018038105 0.00048333092L0.0021012402 0.0012131535Z"/>
<!-- (0, -11, 0) -->
<path class="cell-path" d="M-0.07046341 0.018880585L-0.04862421 0.028073171L-0.04174146 0.011184573L-0.056146387 -1.8294816E-08Z"/>
<!-- (0, -11, 1) -->
<path class="cell-path" d="M-0.04862421 0.028073171L-0.03055688 0.03055685L-0.02880425 0.016630124L-0.04174146 0.011184573Z"/>
<!-- (0, -11, 2) -->
<path class="cell-path" d="M-0.030556874 0.030556845L-0.016630149 0.028804224L-0.018101431 0.018101413L-0.02880424 0.016630119Z"/>
<!-- (0, -11, 3) -->
<path class="cell-path" d="M-0.016630149 0.028804224L-0.006625592 0.024727L-0.009851449 0.01706319L-0.018101431 0.018101413Z"/>
<!-- (0, -11, 4) -->
<path class="cell-path" d="M-0.006625592 0.024727L-1.0256305E-08 0.01970288L-0.0039249025 0.014647901L-0.009851449 0.01706319Z"/>
<!-- (0, -11, 5) -->
<path class="cell-path" d="M-1.0256301E-08 0.01970287L0.0039248834 0.014647899L-7.467051E-09 0.011671683L-0.0039249007 0.014647895Z"/>
<!-- (0, -11, 6) -->
<path class="cell-path" d="M0.0039248886 0.014647905L0.0058358405 0.010107981L0.002325044 0.008677198L-4.6843067E-09 0.011671688Z"/>
<!-- (0, -11, 7) -->
<path class="cell-path" d="M0.0058358377 0.010107976L0.006352143 0.0063521485L0.0034570612 0.0059878128L0.0023250426 0.008677194Z"/>
<!-- (0, -11, 8) -->
<path class="cell-path" d="M0.006352143 0.0063521485L0.005987809 0.003457067L0.0037629134 0.0037629176L0.0034570612 0.0059878128Z"/>
<!-- (0, -11, 9) -->
<path class="cell-path" d="M0.0059878086 0.003457068L0.0051402375 0.0013773259L0.0035470875 0.0020479148L0.0037629132 0.0037629178Z"/>
<!-- (0, -11, 10) -->
<path class="cell-path" d="M0.0051402343 0.0013773253L0.0040958235 2.6854312E-09L0.0030449973 0.00081590685L0.003547086 0.002047914Z"/>
<!-- (0, -11, 11) -->
<path class="cell-path" d="M0.0040958254 2.8074976E-09L0.003045 -0.00081590295L0.0024263053 1.8077383E-09L0.0030449987 0.0008159073Z"/>
<!-- (0, -10, 0) -->
<path class="cell-path" d="M-0.08208212 0.047390085L-0.051582817 0.051582765L-0.04862421 0.028073171L-0.07046341 0.018880585Z"/>
<!-- (0, -10, 1) -->
<path class="cell-path" d="M-0.051582817 0.051582765L-0.02807322 0.048624184L-0.03055688 0.03055685L-0.04862421 0.028073171Z"/>
<!-- (0, -10, 2) -->
<path class="cell-path" d="M-0.028073214 0.048624173L-0.011184607 0.041741442L-0.016630149 0.028804224L-0.030556874 0.030556845Z"/>
<!-- (0, -10, 3) -->
<path class="cell-path" d="M-0.011184607 0.041741442L-1.7313582E-08 0.033260264L-0.0066255946 0.024727L-0.016630149 0.028804224Z"/>
<!-- (0, -10, 4) -->
<path class="cell-path" d="M-1.7313582E-08 0.033260264L0.0066255657 0.024727007L-1.2605072E-08 0.01970288L-0.0066255946 0.024727Z"/>
<!-- (0, -10, 5) -->
<path class="cell-path" d="M0.0066255643 0.024727002L0.009851427 0.017063197L0.003924882 0.014647899L-1.2605068E-08 0.019702874Z"/>
<!-- (0, -10, 6) -->
<path class="cell-path" d="M0.009851429 0.017063191L0.010722999 0.010723009L0.0058358363 0.010107977L0.0039248853 0.014647898Z"/>
<!-- (0, -10, 7) -->
<path class="cell-path" d="M0.010722999 0.010723009L0.010107971 0.005835846L0.0063521424 0.0063521494L0.0058358363 0.010107977Z"/>
<!-- (0, -10, 8) -->
<path class="cell-path" d="M0.01010797 0.0058358475L0.008677191 0.0023250522L0.0059878086 0.003457068L0.006352142 0.00635215Z"/>
<!-- (0, -10, 9) -->
<path class="cell-path" d="M0.008677191 0.0023250524L0.0069141285 4.533256E-09L0.005140237 0.0013773263L0.0059878086 0.0034570685Z"/>
<!-- (0, -10, 10) -->
<path class="cell-path" d="M0.0069141285 4.739313E-09L0.005140239 -0.001377319L0.0040958254 3.0516276E-09L0.005140237 0.0013773263Z"/>
<!-- (0, -10, 11) -->
<path class="cell-path" d="M0.005140236 -0.001377318L0.003547089 -0.002047909L0.0030449985 -0.00081590225L0.0040958235 3.1736913E-09Z"/>
<!-- (0, -9, 0) -->
<path class="cell-path" d="M-0.08707649 0.08707645L-0.04739013 0.0820821L-0.051582802 0.051582776L-0.08208211 0.047390103Z"/>
<!-- (0, -9, 1) -->
<path class="cell-path" d="M-0.047390144 0.082082085L-0.018880626 0.0704634L-0.028073207 0.04862419L-0.051582802 0.051582776Z"/>
<!-- (0, -9, 2) -->
<path class="cell-path" d="M-0.018880622 0.07046338L-1.5840575E-08 0.056146376L-0.011184601 0.041741446L-0.028073201 0.04862418Z"/>
<!-- (0, -9, 3) -->
<path class="cell-path" d="M-1.5840575E-08 0.056146376L0.011184573 0.041741453L-1.3348649E-08 0.033260264L-0.011184601 0.041741446Z"/>
<!-- (0, -9, 4) -->
<path class="cell-path" d="M0.011184573 0.041741453L0.01663012 0.02880424L0.006625569 0.024727006L-1.3348649E-08 0.033260264Z"/>
<!-- (0, -9, 5) -->
<path class="cell-path" d="M0.016630117 0.028804233L0.018101411 0.018101426L0.009851429 0.017063195L0.0066255676 0.024727Z"/>
<!-- (0, -9, 6) -->
<path class="cell-path" d="M0.018101415 0.018101422L0.017063187 0.009851442L0.010723 0.010723008L0.009851432 0.017063193Z"/>
<!-- (0, -9, 7) -->
<path class="cell-path" d="M0.017063182 0.009851441L0.0146478955 0.0039248974L0.010107972 0.0058358447L0.010723 0.010723009Z"/>
<!-- (0, -9, 8) -->
<path class="cell-path" d="M0.0146478955 0.003924898L0.011671683 4.8698054E-09L0.008677191 0.0023250508L0.010107972 0.0058358456Z"/>
<!-- (0, -9, 9) -->
<path class="cell-path" d="M0.011671683 5.217649E-09L0.008677194 -0.0023250426L0.0069141285 3.5029706E-09L0.008677191 0.002325051Z"/>
<!-- (0, -9, 10) -->
<path class="cell-path" d="M0.00867719 -0.0023250415L0.00598781 -0.0034570596L0.005140236 -0.0013773191L0.0069141253 3.7090258E-09Z"/>
<!-- (0, -9, 11) -->
<path class="cell-path" d="M0.0059878128 -0.0034570608L0.0037629176 -0.0037629132L0.0035470899 -0.0020479106L0.005140239 -0.0013773196Z"/>
<!-- (0, -8, 0) -->
<path class="cell-path" d="M-0.07999891 0.1385621L-0.031872228 0.11894867L-0.047390144 0.082082085L-0.08707649 0.08707645Z"/>
<!-- (0, -8, 1) -->
<path class="cell-path" d="M-0.031872228 0.11894867L-2.6740349E-08 0.094780244L-0.018880635 0.0704634L-0.047390144 0.082082085Z"/>
<!-- (0, -8, 2) -->
<path class="cell-path" d="M-2.6740341E-08 0.09478022L0.018880583 0.0704634L-2.2533746E-08 0.056146376L-0.018880632 0.07046338Z"/>
<!-- (0, -8, 3) -->
<path class="cell-path" d="M0.018880583 0.0704634L0.02807317 0.0486242L0.011184568 0.041741453L-2.2533746E-08 0.056146376Z"/>
<!-- (0, -8, 4) -->
<path class="cell-path" d="M0.02807317 0.0486242L0.030556846 0.030556872L0.016630117 0.028804243L0.011184568 0.041741453Z"/>
<!-- (0, -8, 5) -->
<path class="cell-path" d="M0.030556839 0.030556865L0.028804218 0.016630141L0.01810141 0.018101428L0.016630113 0.028804235Z"/>
<!-- (0, -8, 6) -->
<path class="cell-path" d="M0.02880422 0.016630137L0.024726994 0.006625588L0.017063186 0.009851443L0.018101411 0.018101426Z"/>
<!-- (0, -8, 7) -->
<path class="cell-path" d="M0.02472699 0.006625587L0.01970287 8.220678E-09L0.014647895 0.003924899L0.017063182 0.009851443Z"/>
<!-- (0, -8, 8) -->
<path class="cell-path" d="M0.01970287 8.807869E-09L0.014647898 -0.0039248853L0.011671683 5.913335E-09L0.014647895 0.0039248993Z"/>
<!-- (0, -8, 9) -->
<path class="cell-path" d="M0.014647898 -0.003924885L0.010107977 -0.0058358363L0.008677194 -0.002325042L0.011671683 6.2611787E-09Z"/>
<!-- (0, -8, 10) -->
<path class="cell-path" d="M0.010107977 -0.0058358354L0.0063521494 -0.006352142L0.0059878128 -0.0034570608L0.008677194 -0.0023250417Z"/>
<!-- (0, -8, 11) -->
<path class="cell-path" d="M0.0063521476 -0.006352139L0.0034570668 -0.005987806L0.003762916 -0.003762911L0.0059878104 -0.0034570587Z"/>
<!-- (0, -7, 0) -->
<path class="cell-path" d="M-0.05380324 0.20079625L-4.5140162E-08 0.15999775L-0.031872243 0.11894867L-0.07999891 0.1385621Z"/>
<!-- (0, -7, 1) -->
<path class="cell-path" d="M-4.5140162E-08 0.15999775L0.03187216 0.11894869L-3.8039033E-08 0.094780244L-0.031872243 0.11894867Z"/>
<!-- (0, -7, 2) -->
<path class="cell-path" d="M0.031872183 0.11894865L0.0473901 0.08208209L0.018880593 0.07046339L-1.5441659E-08 0.09478022Z"/>
<!-- (0, -7, 3) -->
<path class="cell-path" d="M0.0473901 0.08208209L0.05158277 0.05158279L0.028073175 0.048624195L0.018880593 0.07046339Z"/>
<!-- (0, -7, 4) -->
<path class="cell-path" d="M0.05158277 0.05158279L0.04862418 0.028073201L0.03055685 0.03055687L0.028073175 0.048624195Z"/>
<!-- (0, -7, 5) -->
<path class="cell-path" d="M0.048624165 0.028073197L0.041741434 0.011184599L0.02880422 0.016630137L0.03055684 0.030556865Z"/>
<!-- (0, -7, 6) -->
<path class="cell-path" d="M0.041741434 0.0111845955L0.033260256 9.912329E-09L0.024726994 0.006625587L0.028804222 0.016630137Z"/>
<!-- (0, -7, 7) -->
<path class="cell-path" d="M0.03326025 1.0903559E-08L0.024726994 -0.006625569L0.01970287 7.633487E-09L0.02472699 0.0066255867Z"/>
<!-- (0, -7, 8) -->
<path class="cell-path" d="M0.024726994 -0.006625568L0.017063191 -0.009851428L0.014647898 -0.0039248858L0.01970287 8.220678E-09Z"/>
<!-- (0, -7, 9) -->
<path class="cell-path" d="M0.017063191 -0.009851428L0.01072301 -0.010722999L0.010107976 -0.0058358368L0.014647898 -0.0039248853Z"/>
<!-- (0, -7, 10) -->
<path class="cell-path" d="M0.010723004 -0.010722994L0.0058358433 -0.010107967L0.006352146 -0.0063521396L0.010107973 -0.0058358335Z"/>
<!-- (0, -7, 11) -->
<path class="cell-path" d="M0.005835847 -0.010107971L0.002325051 -0.008677191L0.0034570675 -0.005987809L0.0063521494 -0.006352142Z"/>
<!-- (0, -6, 0) -->
<path class="cell-path" d="M-1.1806046E-08 0.27009085L0.05380318 0.20079628L-2.6066937E-08 0.15999772L-0.05380322 0.20079626Z"/>
<!-- (0, -6, 1) -->
<path class="cell-path" d="M0.053803172 0.20079626L0.07999883 0.1385621L0.03187217 0.11894865L-2.6066937E-08 0.15999772Z"/>
<!-- (0, -6, 2) -->
<path class="cell-path" d="M0.07999883 0.1385621L0.08707644 0.08707647L0.04739009 0.08208209L0.03187217 0.11894865Z"/>
<!-- (0, -6, 3) -->
<path class="cell-path" d="M0.08707644 0.08707647L0.08208207 0.047390133L0.05158276 0.051582795L0.04739009 0.08208209Z"/>
<!-- (0, -6, 4) -->
<path class="cell-path" d="M0.08208207 0.047390133L0.07046338 0.018880624L0.04862418 0.028073201L0.051582765 0.05158279Z"/>
<!-- (0, -6, 5) -->
<path class="cell-path" d="M0.07046336 0.01888062L0.05614636 1.6732919E-08L0.041741434 0.011184598L0.04862417 0.028073197Z"/>
<!-- (0, -6, 6) -->
<path class="cell-path" d="M0.05614636 1.1713044E-08L0.04174144 -0.011184575L0.033260256 8.921096E-09L0.041741434 0.011184595Z"/>
<!-- (0, -6, 7) -->
<path class="cell-path" d="M0.041741427 -0.011184571L0.028804226 -0.016630117L0.024726994 -0.00662557L0.03326025 9.912327E-09Z"/>
<!-- (0, -6, 8) -->
<path class="cell-path" d="M0.028804226 -0.016630115L0.01810142 -0.018101407L0.01706319 -0.00985143L0.024726994 -0.006625569Z"/>
<!-- (0, -6, 9) -->
<path class="cell-path" d="M0.018101422 -0.018101407L0.009851444 -0.017063182L0.010723009 -0.010723L0.017063191 -0.009851428Z"/>
<!-- (0, -6, 10) -->
<path class="cell-path" d="M0.009851444 -0.017063182L0.0039248993 -0.014647895L0.005835846 -0.010107972L0.01072301 -0.010722999Z"/>
<!-- (0, -6, 11) -->
<path class="cell-path" d="M0.0039248955 -0.014647888L5.055304E-09 -0.011671677L0.00232505 -0.008677187L0.0058358433 -0.010107967Z"/>
<!-- (0, -5, 0) -->
<path class="cell-path" d="M0.09082471 0.33896255L0.1350454 0.23390557L0.053803153 0.20079628L-4.400339E-08 0.27009088Z"/>
<!-- (0, -5, 1) -->
<path class="cell-path" d="M0.1350454 0.23390557L0.14699304 0.1469931L0.07999882 0.13856211L0.053803153 0.20079628Z"/>
<!-- (0, -5, 2) -->
<path class="cell-path" d="M0.14699304 0.1469931L0.1385621 0.07999891L0.08707644 0.0870765L0.079998836 0.13856214Z"/>
<!-- (0, -5, 3) -->
<path class="cell-path" d="M0.13856205 0.07999889L0.11894864 0.031872224L0.08208207 0.047390133L0.08707643 0.08707647Z"/>
<!-- (0, -5, 4) -->
<path class="cell-path" d="M0.11894864 0.031872228L0.09478022 2.8246706E-08L0.07046338 0.018880632L0.08208207 0.04739014Z"/>
<!-- (0, -5, 5) -->
<path class="cell-path" d="M0.09478022 3.1071377E-08L0.0704634 -0.018880583L0.056146376 2.17528E-08L0.07046338 0.018880634Z"/>
<!-- (0, -5, 6) -->
<path class="cell-path" d="M0.07046339 -0.01888059L0.048624195 -0.028073175L0.041741453 -0.011184574L0.056146376 1.6732924E-08Z"/>
<!-- (0, -5, 7) -->
<path class="cell-path" d="M0.048624184 -0.028073164L0.030556861 -0.03055684L0.028804231 -0.016630119L0.041741442 -0.01118457Z"/>
<!-- (0, -5, 8) -->
<path class="cell-path" d="M0.030556858 -0.030556833L0.016630137 -0.028804215L0.018101422 -0.018101407L0.028804228 -0.016630113Z"/>
<!-- (0, -5, 9) -->
<path class="cell-path" d="M0.016630137 -0.028804215L0.0066255894 -0.024726989L0.009851444 -0.017063182L0.018101424 -0.018101405Z"/>
<!-- (0, -5, 10) -->
<path class="cell-path" d="M0.0066255867 -0.02472699L8.533821E-09 -0.01970287L0.0039248993 -0.014647895L0.009851444 -0.017063182Z"/>
<!-- (0, -5, 11) -->
<path class="cell-path" d="M8.533821E-09 -0.01970287L-0.003924885 -0.014647898L6.4466796E-09 -0.011671683L0.0039248993 -0.014647895Z"/>
<!-- (0, -4, 0) -->
<path class="cell-path" d="M0.227969 0.39485404L0.24813771 0.24813782L0.13504536 0.23390558L0.09082466 0.33896255Z"/>
<!-- (0, -4, 1) -->
<path class="cell-path" d="M0.24813771 0.24813782L0.2339055 0.13504548L0.146993 0.1469931L0.13504536 0.23390558Z"/>
<!-- (0, -4, 2) -->
<path class="cell-path" d="M0.23390551 0.13504545L0.20079625 0.05380323L0.13856207 0.079998896L0.14699304 0.1469931Z"/>
<!-- (0, -4, 3) -->
<path class="cell-path" d="M0.20079625 0.053803224L0.1599977 2.8609819E-08L0.11894864 0.03187222L0.13856207 0.07999889Z"/>
<!-- (0, -4, 4) -->
<path class="cell-path" d="M0.1599977 3.337812E-08L0.11894865 -0.03187217L0.09478022 2.5422036E-08L0.11894864 0.031872224Z"/>
<!-- (0, -4, 5) -->
<path class="cell-path" d="M0.11894865 -0.031872164L0.08208209 -0.04739009L0.0704634 -0.018880585L0.09478022 2.8246706E-08Z"/>
<!-- (0, -4, 6) -->
<path class="cell-path" d="M0.08208209 -0.047390092L0.05158279 -0.05158277L0.048624195 -0.028073177L0.07046339 -0.018880593Z"/>
<!-- (0, -4, 7) -->
<path class="cell-path" d="M0.051582776 -0.05158275L0.02807319 -0.04862417L0.03055686 -0.030556845L0.048624184 -0.028073167Z"/>
<!-- (0, -4, 8) -->
<path class="cell-path" d="M0.02807319 -0.048624154L0.011184593 -0.041741423L0.016630134 -0.028804217L0.030556854 -0.030556833Z"/>
<!-- (0, -4, 9) -->
<path class="cell-path" d="M0.011184596 -0.041741423L1.440587E-08 -0.03326025L0.0066255894 -0.024726989L0.016630137 -0.028804215Z"/>
<!-- (0, -4, 10) -->
<path class="cell-path" d="M1.440587E-08 -0.03326025L-0.0066255652 -0.024726994L1.0882586E-08 -0.01970287L0.0066255894 -0.024726989Z"/>
<!-- (0, -4, 11) -->
<path class="cell-path" d="M-0.0066255652 -0.024726994L-0.009851428 -0.017063191L-0.003924883 -0.014647899L1.0882586E-08 -0.01970287Z"/>
<!-- (0, -3, 0) -->
<path class="cell-path" d="M0.41887936 0.4188793L0.394854 0.22796907L0.24813773 0.24813777L0.22796905 0.394854Z"/>
<!-- (0, -3, 1) -->
<path class="cell-path" d="M0.39485395 0.22796911L0.33896247 0.09082477L0.2339055 0.13504544L0.24813773 0.2481378Z"/>
<!-- (0, -3, 2) -->
<path class="cell-path" d="M0.33896247 0.09082475L0.27009085 3.2197338E-08L0.20079625 0.053803224L0.23390551 0.13504545Z"/>
<!-- (0, -3, 3) -->
<path class="cell-path" d="M0.27009082 2.4148001E-08L0.20079623 -0.05380316L0.1599977 2.3841515E-08L0.20079625 0.053803217Z"/>
<!-- (0, -3, 4) -->
<path class="cell-path" d="M0.20079623 -0.053803153L0.1385621 -0.07999883L0.11894865 -0.031872172L0.1599977 2.8609819E-08Z"/>
<!-- (0, -3, 5) -->
<path class="cell-path" d="M0.1385621 -0.07999882L0.08707647 -0.08707644L0.08208209 -0.047390092L0.11894865 -0.03187217Z"/>
<!-- (0, -3, 6) -->
<path class="cell-path" d="M0.08707646 -0.08707644L0.04739013 -0.08208207L0.051582787 -0.05158277L0.08208209 -0.047390096Z"/>
<!-- (0, -3, 7) -->
<path class="cell-path" d="M0.04739012 -0.082082056L0.01888062 -0.07046336L0.02807319 -0.04862417L0.051582776 -0.051582754Z"/>
<!-- (0, -3, 8) -->
<path class="cell-path" d="M0.01888061 -0.07046335L1.0932097E-08 -0.056146346L0.011184593 -0.041741423L0.028073182 -0.048624158Z"/>
<!-- (0, -3, 9) -->
<path class="cell-path" d="M1.0932097E-08 -0.056146346L-0.011184571 -0.041741427L1.044094E-08 -0.03326025L0.011184593 -0.041741423Z"/>
<!-- (0, -3, 10) -->
<path class="cell-path" d="M-0.011184571 -0.041741427L-0.016630113 -0.028804228L-0.006625568 -0.024726994L1.044094E-08 -0.03326025Z"/>
<!-- (0, -3, 11) -->
<path class="cell-path" d="M-0.016630113 -0.028804228L-0.018101405 -0.018101424L-0.009851428 -0.017063191L-0.006625568 -0.024726994Z"/>
<!-- (0, -2, 0) -->
<path class="cell-path" d="M0.66654986 0.38483274L0.5721998 0.15332052L0.39485398 0.22796912L0.41887936 0.41887942Z"/>
<!-- (0, -2, 1) -->
<path class="cell-path" d="M0.57219976 0.15332052L0.45593813 5.435206E-08L0.33896247 0.090824775L0.39485398 0.22796912Z"/>
<!-- (0, -2, 2) -->
<path class="cell-path" d="M0.4559381 4.0764043E-08L0.3389625 -0.09082468L0.27009082 4.0246668E-08L0.33896247 0.09082477Z"/>
<!-- (0, -2, 3) -->
<path class="cell-path" d="M0.3389625 -0.09082469L0.23390555 -0.1350454L0.20079626 -0.05380316L0.27009085 3.2197338E-08Z"/>
<!-- (0, -2, 4) -->
<path class="cell-path" d="M0.2339055 -0.13504536L0.14699306 -0.14699301L0.13856208 -0.07999881L0.20079623 -0.053803146Z"/>
<!-- (0, -2, 5) -->
<path class="cell-path" d="M0.14699306 -0.14699301L0.07999888 -0.13856207L0.08707647 -0.08707643L0.1385621 -0.07999882Z"/>
<!-- (0, -2, 6) -->
<path class="cell-path" d="M0.07999888 -0.13856207L0.031872228 -0.11894864L0.04739013 -0.08208207L0.08707647 -0.08707644Z"/>
<!-- (0, -2, 7) -->
<path class="cell-path" d="M0.031872205 -0.118948616L1.8454386E-08 -0.0947802L0.01888062 -0.07046336L0.04739012 -0.082082056Z"/>
<!-- (0, -2, 8) -->
<path class="cell-path" d="M1.8454386E-08 -0.0947802L-0.018880585 -0.07046337L1.7625268E-08 -0.05614636L0.01888062 -0.07046336Z"/>
<!-- (0, -2, 9) -->
<path class="cell-path" d="M-0.018880585 -0.07046337L-0.02807316 -0.048624188L-0.0111845685 -0.041741442L1.7625268E-08 -0.05614636Z"/>
<!-- (0, -2, 10) -->
<path class="cell-path" d="M-0.028073153 -0.048624173L-0.030556832 -0.03055686L-0.016630113 -0.028804228L-0.011184566 -0.04174143Z"/>
<!-- (0, -2, 11) -->
<path class="cell-path" d="M-0.030556832 -0.03055686L-0.028804211 -0.016630141L-0.018101405 -0.018101424L-0.016630113 -0.028804228Z"/>
<!-- (0, -1, 0) -->
<path class="cell-path" d="M0.9659258 0.258819L0.7696654 0L0.57219976 0.15332049L0.66654986 0.38483274Z"/>
<!-- (0, -1, 1) -->
<path class="cell-path" d="M0.76966536 2.2937815E-08L0.57219976 -0.15332043L0.4559381 4.0764043E-08L0.57219976 0.1533205Z"/>
<!-- (0, -1, 2) -->
<path class="cell-path" d="M0.5721997 -0.15332042L0.39485398 -0.22796899L0.33896247 -0.09082467L0.4559381 4.0764043E-08Z"/>
<!-- (0, -1, 3) -->
<path class="cell-path" d="M0.394854 -0.227969L0.24813777 -0.24813773L0.23390552 -0.13504538L0.3389625 -0.09082468Z"/>
<!-- (0, -1, 4) -->
<path class="cell-path" d="M0.24813777 -0.2481377L0.13504544 -0.23390546L0.14699306 -0.14699301L0.23390554 -0.13504536Z"/>
<!-- (0, -1, 5) -->
<path class="cell-path" d="M0.13504544 -0.23390546L0.05380324 -0.2007962L0.07999887 -0.13856205L0.14699307 -0.14699301Z"/>
<!-- (0, -1, 6) -->
<path class="cell-path" d="M0.053803217 -0.20079622L3.11527E-08 -0.1599977L0.031872228 -0.11894864L0.07999888 -0.13856207Z"/>
<!-- (0, -1, 7) -->
<path class="cell-path" d="M3.1152695E-08 -0.15999766L-0.031872157 -0.11894862L2.9753066E-08 -0.0947802L0.03187222 -0.11894861Z"/>
<!-- (0, -1, 8) -->
<path class="cell-path" d="M-0.031872157 -0.11894862L-0.047390066 -0.08208208L-0.018880576 -0.070463374L2.9753066E-08 -0.0947802Z"/>
<!-- (0, -1, 9) -->
<path class="cell-path" d="M-0.047390085 -0.08208207L-0.051582765 -0.051582765L-0.028073173 -0.04862418L-0.018880593 -0.07046337Z"/>
<!-- (0, -1, 10) -->
<path class="cell-path" d="M-0.05158274 -0.051582765L-0.04862416 -0.028073177L-0.030556837 -0.030556852L-0.028073166 -0.04862417Z"/>
<!-- (0, -1, 11) -->
<path class="cell-path" d="M-0.048624154 -0.028073186L-0.041741427 -0.011184585L-0.028804217 -0.016630132L-0.030556837 -0.030556852Z"/>
<!-- (0, 0, 0) -->
<path class="cell-path" d="M1.2992659 -3.872114E-08L0.9659258 -0.25881904L0.7696654 2.2937817E-08L0.9659258 0.25881904Z"/>
<!-- (0, 0, 1) -->
<path class="cell-path" d="M0.9659258 -0.25881904L0.66654974 -0.38483268L0.57219976 -0.15332043L0.7696654 2.2937817E-08Z"/>
<!-- (0, 0, 2) -->
<path class="cell-path" d="M0.66654974 -0.38483268L0.41887936 -0.4188793L0.394854 -0.227969L0.57219976 -0.15332043Z"/>
<!-- (0, 0, 3) -->
<path class="cell-path" d="M0.4188793 -0.41887927L0.22796902 -0.39485398L0.24813776 -0.24813773L0.394854 -0.22796904Z"/>
<!-- (0, 0, 4) -->
<path class="cell-path" d="M0.22796905 -0.39485392L0.090824716 -0.3389624L0.13504541 -0.23390548L0.24813776 -0.24813771Z"/>
<!-- (0, 0, 5) -->
<path class="cell-path" d="M0.09082476 -0.3389624L5.2588618E-08 -0.2700908L0.05380323 -0.20079617L0.13504544 -0.23390546Z"/>
<!-- (0, 0, 6) -->
<path class="cell-path" d="M-1.1806043E-08 -0.2700908L-0.053803183 -0.20079622L1.2079489E-08 -0.15999769L0.05380319 -0.20079622Z"/>
<!-- (0, 0, 7) -->
<path class="cell-path" d="M-0.053803176 -0.20079619L-0.079998836 -0.13856204L-0.031872172 -0.11894862L1.2079489E-08 -0.15999769Z"/>
<!-- (0, 0, 8) -->
<path class="cell-path" d="M-0.079998806 -0.13856205L-0.08707643 -0.08707643L-0.047390085 -0.08208207L-0.031872172 -0.11894862Z"/>
<!-- (0, 0, 9) -->
<path class="cell-path" d="M-0.08707641 -0.087076455L-0.082082056 -0.047390107L-0.05158275 -0.051582776L-0.047390085 -0.08208207Z"/>
<!-- (0, 0, 10) -->
<path class="cell-path" d="M-0.082082026 -0.04739011L-0.07046335 -0.018880604L-0.048624154 -0.028073186L-0.05158274 -0.051582765Z"/>
<!-- (0, 0, 11) -->
<path class="cell-path" d="M-0.070463344 -0.018880622L-0.056146346 -8.477863E-09L-0.041741423 -0.0111845955L-0.048624154 -0.028073186Z"/>
<!-- (0, 1, 0) -->
<path class="cell-path" d="M1.6305715 -0.43691042L1.1251972 -0.6496329L0.9659258 -0.25881904L1.2992659 -3.872114E-08Z"/>
<!-- (0, 1, 1) -->
<path class="cell-path" d="M1.1251972 -0.6496329L0.7071067 -0.7071067L0.66654974 -0.38483268L0.9659258 -0.25881904Z"/>
<!-- (0, 1, 2) -->
<path class="cell-path" d="M0.70710677 -0.7071067L0.38483262 -0.66654974L0.4188793 -0.41887927L0.6665498 -0.38483265Z"/>
<!-- (0, 1, 3) -->
<path class="cell-path" d="M0.38483262 -0.66654974L0.15332048 -0.5721997L0.227969 -0.39485395L0.41887927 -0.41887927Z"/>
<!-- (0, 1, 4) -->
<path class="cell-path" d="M0.15332039 -0.5721997L-1.9929683E-08 -0.455938L0.090824716 -0.3389624L0.227969 -0.39485395Z"/>
<!-- (0, 1, 5) -->
<path class="cell-path" d="M-1.9929683E-08 -0.45593798L-0.09082471 -0.3389624L2.0391285E-08 -0.27009076L0.090824716 -0.3389624Z"/>
<!-- (0, 1, 6) -->
<path class="cell-path" d="M-0.09082471 -0.3389624L-0.13504541 -0.23390548L-0.053803153 -0.2007962L2.0391287E-08 -0.2700908Z"/>
<!-- (0, 1, 7) -->
<path class="cell-path" d="M-0.13504533 -0.23390548L-0.146993 -0.146993L-0.079998806 -0.13856205L-0.053803153 -0.2007962Z"/>
<!-- (0, 1, 8) -->
<path class="cell-path" d="M-0.14699297 -0.14699304L-0.13856204 -0.079998836L-0.08707641 -0.087076455L-0.079998806 -0.13856205Z"/>
<!-- (0, 1, 9) -->
<path class="cell-path" d="M-0.13856201 -0.079998866L-0.118948616 -0.031872198L-0.08208205 -0.047390122L-0.08707641 -0.087076455Z"/>
<!-- (0, 1, 10) -->
<path class="cell-path" d="M-0.11894858 -0.03187222L-0.09478018 -1.4311409E-08L-0.070463344 -0.018880622L-0.082082026 -0.04739011Z"/>
<!-- (0, 1, 11) -->
<path class="cell-path" d="M-0.09478018 -3.6908762E-08L-0.07046335 0.018880583L-0.056146346 -2.1864194E-08L-0.070463344 -0.018880622Z"/>
<!-- (0, 2, 0) -->
<path class="cell-path" d="M1.899436 -1.0966402L1.193661 -1.1936612L1.1251972 -0.64963293L1.6305715 -0.43691042Z"/>
<!-- (0, 2, 1) -->
<path class="cell-path" d="M1.193661 -1.1936611L0.6496328 -1.1251972L0.70710665 -0.70710677L1.1251972 -0.64963293Z"/>
<!-- (0, 2, 2) -->
<path class="cell-path" d="M0.6496328 -1.1251972L0.25881904 -0.9659257L0.38483262 -0.66654974L0.7071067 -0.7071067Z"/>
<!-- (0, 2, 3) -->
<path class="cell-path" d="M0.25881892 -0.96592575L-3.364314E-08 -0.7696653L0.15332048 -0.5721997L0.38483265 -0.6665498Z"/>
<!-- (0, 2, 4) -->
<path class="cell-path" d="M-3.364314E-08 -0.7696653L-0.15332046 -0.5721997L3.4422364E-08 -0.45593804L0.15332048 -0.5721997Z"/>
<!-- (0, 2, 5) -->
<path class="cell-path" d="M-0.15332045 -0.57219964L-0.22796904 -0.3948539L-0.09082466 -0.33896244L3.4422364E-08 -0.45593804Z"/>
<!-- (0, 2, 6) -->
<path class="cell-path" d="M-0.22796902 -0.39485386L-0.24813771 -0.24813771L-0.1350454 -0.23390545L-0.090824746 -0.3389624Z"/>
<!-- (0, 2, 7) -->
<path class="cell-path" d="M-0.24813771 -0.24813771L-0.23390548 -0.13504541L-0.14699301 -0.14699301L-0.13504541 -0.23390548Z"/>
<!-- (0, 2, 8) -->
<path class="cell-path" d="M-0.23390543 -0.13504538L-0.20079617 -0.05380319L-0.13856202 -0.07999883L-0.146993 -0.146993Z"/>
<!-- (0, 2, 9) -->
<path class="cell-path" d="M-0.20079617 -0.05380319L-0.15999766 -2.4158975E-08L-0.118948616 -0.031872198L-0.13856204 -0.079998836Z"/>
<!-- (0, 2, 10) -->
<path class="cell-path" d="M-0.15999763 -2.415897E-08L-0.118948594 0.031872153L-0.09478018 -1.4311409E-08L-0.11894859 -0.03187219Z"/>
<!-- (0, 2, 11) -->
<path class="cell-path" d="M-0.118948594 0.031872153L-0.08208205 0.04739007L-0.07046335 0.018880583L-0.09478018 -1.4311409E-08Z"/>
<!-- (0, 3, 0) -->
<path class="cell-path" d="M2.0150092 -2.0150096L1.0966398 -1.8994361L1.193661 -1.1936611L1.8994361 -1.0966401Z"/>
<!-- (0, 3, 1) -->
<path class="cell-path" d="M1.0966398 -1.8994361L0.43691027 -1.6305711L0.6496328 -1.1251972L1.193661 -1.193661Z"/>
<!-- (0, 3, 2) -->
<path class="cell-path" d="M0.43691012 -1.6305714L-5.679271E-08 -1.2992657L0.25881904 -0.9659257L0.6496328 -1.1251972Z"/>
<!-- (0, 3, 3) -->
<path class="cell-path" d="M-5.679271E-08 -1.2992657L-0.258819 -0.9659257L5.8108114E-08 -0.7696653L0.25881904 -0.96592575Z"/>
<!-- (0, 3, 4) -->
<path class="cell-path" d="M-0.25881898 -0.96592563L-0.38483268 -0.6665496L-0.15332039 -0.57219976L5.8108114E-08 -0.7696653Z"/>
<!-- (0, 3, 5) -->
<path class="cell-path" d="M-0.38483265 -0.66654956L-0.41887918 -0.41887918L-0.22796902 -0.39485386L-0.1533205 -0.57219964Z"/>
<!-- (0, 3, 6) -->
<path class="cell-path" d="M-0.41887924 -0.41887924L-0.3948539 -0.22796904L-0.24813771 -0.24813771L-0.22796905 -0.39485392Z"/>
<!-- (0, 3, 7) -->
<path class="cell-path" d="M-0.39485386 -0.22796902L-0.3389624 -0.09082474L-0.23390545 -0.1350454L-0.24813771 -0.24813771Z"/>
<!-- (0, 3, 8) -->
<path class="cell-path" d="M-0.33896238 -0.09082472L-0.27009073 -4.0782567E-08L-0.20079617 -0.05380319L-0.23390545 -0.1350454Z"/>
<!-- (0, 3, 9) -->
<path class="cell-path" d="M-0.27009076 -4.078257E-08L-0.20079619 0.05380313L-0.15999766 -2.4158975E-08L-0.20079619 -0.053803194Z"/>
<!-- (0, 3, 10) -->
<path class="cell-path" d="M-0.20079616 0.053803124L-0.13856202 0.079998784L-0.118948594 0.031872153L-0.15999764 -2.4158972E-08Z"/>
<!-- (0, 3, 11) -->
<path class="cell-path" d="M-0.13856202 0.079998784L-0.08707644 0.08707639L-0.08208205 0.04739007L-0.118948594 0.031872153Z"/>
<!-- (0, 4, 0) -->
<path class="cell-path" d="M1.8512282 -3.2064226L0.73754394 -2.7525537L1.0966396 -1.8994362L2.0150092 -2.0150099Z"/>
<!-- (0, 4, 1) -->
<path class="cell-path" d="M0.7375443 -2.7525537L-9.587129E-08 -2.1932795L0.43691024 -1.630571L1.0966398 -1.8994361Z"/>
<!-- (0, 4, 2) -->
<path class="cell-path" d="M-6.1878995E-07 -2.1932797L-0.43691057 -1.6305711L-2.1167726E-07 -1.2992657L0.4369099 -1.6305714Z"/>
<!-- (0, 4, 3) -->
<path class="cell-path" d="M-0.43691057 -1.6305711L-0.6496329 -1.125197L-0.2588191 -0.96592563L-2.1167726E-07 -1.2992657Z"/>
<!-- (0, 4, 4) -->
<path class="cell-path" d="M-0.6496329 -1.125197L-0.7071066 -0.7071066L-0.38483268 -0.6665496L-0.2588191 -0.96592563Z"/>
<!-- (0, 4, 5) -->
<path class="cell-path" d="M-0.70710653 -0.70710653L-0.66654956 -0.38483265L-0.41887918 -0.41887918L-0.38483265 -0.66654956Z"/>
<!-- (0, 4, 6) -->
<path class="cell-path" d="M-0.66654956 -0.38483265L-0.5721996 -0.15332048L-0.39485386 -0.22796902L-0.41887924 -0.41887924Z"/>
<!-- (0, 4, 7) -->
<path class="cell-path" d="M-0.5721996 -0.15332048L-0.45593795 -6.884472E-08L-0.33896238 -0.09082472L-0.39485386 -0.22796902Z"/>
<!-- (0, 4, 8) -->
<path class="cell-path" d="M-0.45593792 -6.884471E-08L-0.33896235 0.09082461L-0.27009073 -4.0782567E-08L-0.33896238 -0.09082472Z"/>
<!-- (0, 4, 9) -->
<path class="cell-path" d="M-0.33896238 0.09082462L-0.23390546 0.1350453L-0.20079619 0.05380313L-0.27009076 -4.078257E-08Z"/>
<!-- (0, 4, 10) -->
<path class="cell-path" d="M-0.2339054 0.13504528L-0.14699301 0.14699292L-0.13856202 0.079998784L-0.20079616 0.053803124Z"/>
<!-- (0, 4, 11) -->
<path class="cell-path" d="M-0.14699303 0.14699294L-0.07999886 0.13856198L-0.08707644 0.08707639L-0.13856204 0.07999879Z"/>
<!-- (0, 5, 0) -->
<path class="cell-path" d="M1.2450413 -4.646564L-1.0445741E-06 -3.7024572L0.73754394 -2.7525537L1.8512279 -3.2064228Z"/>
<!-- (0, 5, 1) -->
<path class="cell-path" d="M-1.0445741E-06 -3.7024572L-0.73754513 -2.7525535L-3.573306E-07 -2.1932795L0.73754394 -2.7525537Z"/>
<!-- (0, 5, 2) -->
<path class="cell-path" d="M-0.73754513 -2.7525535L-1.0966399 -1.8994358L-0.4369104 -1.630571L-3.5733063E-07 -2.1932797Z"/>
<!-- (0, 5, 3) -->
<path class="cell-path" d="M-1.0966399 -1.8994358L-1.1936607 -1.1936607L-0.6496328 -1.1251969L-0.4369104 -1.630571Z"/>
<!-- (0, 5, 4) -->
<path class="cell-path" d="M-1.1936607 -1.1936607L-1.1251969 -0.6496328L-0.70710653 -0.70710653L-0.6496328 -1.1251969Z"/>
<!-- (0, 5, 5) -->
<path class="cell-path" d="M-1.1251968 -0.64963275L-0.96592546 -0.25881904L-0.66654956 -0.38483262L-0.70710653 -0.70710653Z"/>
<!-- (0, 5, 6) -->
<path class="cell-path" d="M-0.9659256 -0.25881884L-0.7696652 2.5078876E-07L-0.57219964 -0.15332036L-0.6665497 -0.38483244Z"/>
<!-- (0, 5, 7) -->
<path class="cell-path" d="M-0.7696651 6.7286265E-08L-0.5721995 0.15332057L-0.45593792 3.985936E-08L-0.57219964 -0.15332036Z"/>
<!-- (0, 5, 8) -->
<path class="cell-path" d="M-0.5721996 0.15332043L-0.39485374 0.22796902L-0.33896235 0.09082469L-0.45593792 3.985936E-08Z"/>
<!-- (0, 5, 9) -->
<path class="cell-path" d="M-0.39485383 0.22796895L-0.24813761 0.2481377L-0.23390543 0.13504535L-0.33896238 0.0908247Z"/>
<!-- (0, 5, 10) -->
<path class="cell-path" d="M-0.24813762 0.24813758L-0.13504529 0.23390536L-0.14699297 0.14699295L-0.23390538 0.13504532Z"/>
<!-- (0, 5, 11) -->
<path class="cell-path" d="M-0.1350453 0.23390539L-0.053803146 0.20079613L-0.0799988 0.13856202L-0.14699295 0.14699301Z"/>
<!-- (0, 6, 0) -->
<path class="cell-path" d="M-1.7633372E-06 -6.250088L-1.245044 -4.6465635L-6.032069E-07 -3.7024574L1.245042 -4.646564Z"/>
<!-- (0, 6, 1) -->
<path class="cell-path" d="M-1.2450439 -4.646563L-1.8512288 -3.2064219L-0.7375449 -2.7525537L-6.032069E-07 -3.7024574Z"/>
<!-- (0, 6, 2) -->
<path class="cell-path" d="M-1.8512288 -3.2064219L-2.0150092 -2.0150092L-1.0966399 -1.8994358L-0.7375449 -2.7525537Z"/>
<!-- (0, 6, 3) -->
<path class="cell-path" d="M-2.0150092 -2.0150092L-1.8994358 -1.0966399L-1.1936609 -1.1936609L-1.09664 -1.899436Z"/>
<!-- (0, 6, 4) -->
<path class="cell-path" d="M-1.8994358 -1.0966399L-1.6305709 -0.43691033L-1.1251969 -0.6496328L-1.1936609 -1.1936609Z"/>
<!-- (0, 6, 5) -->
<path class="cell-path" d="M-1.6305709 -0.43691033L-1.2992655 -1.9618363E-07L-0.9659255 -0.25881904L-1.1251969 -0.6496328Z"/>
<!-- (0, 6, 6) -->
<path class="cell-path" d="M-1.2992656 1.1358541E-07L-0.9659255 0.25881925L-0.76966524 6.728627E-08L-0.9659257 -0.25881886Z"/>
<!-- (0, 6, 7) -->
<path class="cell-path" d="M-0.9659255 0.25881898L-0.6665495 0.38483274L-0.5721996 0.15332045L-0.7696652 6.7286265E-08Z"/>
<!-- (0, 6, 8) -->
<path class="cell-path" d="M-0.66654956 0.38483253L-0.41887906 0.4188792L-0.39485383 0.22796895L-0.5721996 0.15332045Z"/>
<!-- (0, 6, 9) -->
<path class="cell-path" d="M-0.4188792 0.41887915L-0.22796893 0.39485386L-0.2481377 0.24813765L-0.39485386 0.22796898Z"/>
<!-- (0, 6, 10) -->
<path class="cell-path" d="M-0.22796889 0.3948538L-0.09082466 0.33896235L-0.1350453 0.23390539L-0.24813761 0.2481377Z"/>
<!-- (0, 6, 11) -->
<path class="cell-path" d="M-0.09082482 0.3389623L-1.255685E-07 0.27009073L-0.053803246 0.20079613L-0.13504544 0.23390538Z"/>
<!-- (0, 7, 0) -->
<path class="cell-path" d="M-2.1017485 -7.8438253L-3.1250446 -5.412735L-1.2450434 -4.646563L-1.0182687E-06 -6.250088Z"/>
<!-- (0, 7, 1) -->
<path class="cell-path" d="M-3.1250453 -5.412734L-3.4015217 -3.4015183L-1.8512294 -3.2064214L-1.2450445 -4.646563Z"/>
<!-- (0, 7, 2) -->
<path class="cell-path" d="M-3.401521 -3.401519L-3.2064228 -1.8512272L-2.0150094 -2.0150084L-1.8512294 -3.2064214Z"/>
<!-- (0, 7, 3) -->
<path class="cell-path" d="M-3.2064223 -1.8512279L-2.752554 -0.7375435L-1.899436 -1.0966394L-2.0150096 -2.0150087Z"/>
<!-- (0, 7, 4) -->
<path class="cell-path" d="M-2.7525535 -0.7375441L-2.1932793 7.146611E-07L-1.6305709 -0.43690994L-1.899436 -1.0966394Z"/>
<!-- (0, 7, 5) -->
<path class="cell-path" d="M-2.1932793 1.9174256E-07L-1.6305708 0.4369106L-1.2992654 1.13585386E-07L-1.6305709 -0.43690994Z"/>
<!-- (0, 7, 6) -->
<path class="cell-path" d="M-1.6305709 0.43691063L-1.1251968 0.649633L-0.96592546 0.25881922L-1.2992655 4.2335446E-07Z"/>
<!-- (0, 7, 7) -->
<path class="cell-path" d="M-1.1251967 0.64963293L-0.7071064 0.70710665L-0.66654944 0.3848327L-0.96592546 0.25881922Z"/>
<!-- (0, 7, 8) -->
<path class="cell-path" d="M-0.70710635 0.7071066L-0.38483247 0.6665495L-0.41887906 0.4188792L-0.66654944 0.3848327Z"/>
<!-- (0, 7, 9) -->
<path class="cell-path" d="M-0.3848325 0.66654956L-0.15332037 0.5721996L-0.22796892 0.39485383L-0.41887912 0.41887927Z"/>
<!-- (0, 7, 10) -->
<path class="cell-path" d="M-0.15332034 0.57219946L5.437004E-09 0.45593783L-0.09082465 0.3389623L-0.22796889 0.3948538Z"/>
<!-- (0, 7, 11) -->
<path class="cell-path" d="M5.4370046E-09 0.45593786L0.09082467 0.33896235L3.220799E-09 0.27009067L-0.09082466 0.33896235Z"/>
<!-- (0, 8, 0) -->
<path class="cell-path" d="M-5.275363 -9.137191L-5.742082 -5.7420764L-3.1250453 -5.412734L-2.1017494 -7.8438253Z"/>
<!-- (0, 8, 1) -->
<path class="cell-path" d="M-5.7420807 -5.742078L-5.4127355 -3.125041L-3.401521 -3.401519L-3.1250453 -5.412734Z"/>
<!-- (0, 8, 2) -->
<path class="cell-path" d="M-5.4127345 -3.1250422L-4.6465635 -1.245041L-3.2064219 -1.8512276L-3.401521 -3.401519Z"/>
<!-- (0, 8, 3) -->
<path class="cell-path" d="M-4.6465635 -1.245041L-3.7024572 1.2064137E-06L-2.7525537 -0.73754346L-3.2064228 -1.8512272Z"/>
<!-- (0, 8, 4) -->
<path class="cell-path" d="M-3.7024567 1.2064136E-06L-2.7525527 0.73754513L-2.1932793 7.146611E-07L-2.7525537 -0.73754346Z"/>
<!-- (0, 8, 5) -->
<path class="cell-path" d="M-2.7525527 0.73754513L-1.899435 1.0966399L-1.6305707 0.43691057L-2.1932793 7.146611E-07Z"/>
<!-- (0, 8, 6) -->
<path class="cell-path" d="M-1.8994353 1.09664L-1.1936605 1.1936609L-1.1251967 0.64963293L-1.6305708 0.4369106Z"/>
<!-- (0, 8, 7) -->
<path class="cell-path" d="M-1.1936605 1.1936609L-0.6496325 1.1251968L-0.70710635 0.7071066L-1.1251967 0.64963293Z"/>
<!-- (0, 8, 8) -->
<path class="cell-path" d="M-0.6496325 1.1251968L-0.25881886 0.9659254L-0.38483247 0.6665495L-0.70710635 0.7071066Z"/>
<!-- (0, 8, 9) -->
<path class="cell-path" d="M-0.25881886 0.96592546L9.178164E-09 0.76966506L-0.15332037 0.5721996L-0.3848325 0.66654956Z"/>
<!-- (0, 8, 10) -->
<path class="cell-path" d="M9.178162E-09 0.76966494L0.15332036 0.57219946L5.437004E-09 0.45593783L-0.15332034 0.57219946Z"/>
<!-- (0, 8, 11) -->
<path class="cell-path" d="M0.15332036 0.57219946L0.22796887 0.39485377L0.090824656 0.3389623L5.4370046E-09 0.45593786Z"/>
<!-- (0, 9, 0) -->
<path class="cell-path" d="M-9.693158 -9.693152L-9.137195 -5.2753563L-5.7420807 -5.742078L-5.275363 -9.137191Z"/>
<!-- (0, 9, 1) -->
<path class="cell-path" d="M-9.137194 -5.2753587L-7.843827 -2.101744L-5.4127355 -3.1250427L-5.7420807 -5.742078Z"/>
<!-- (0, 9, 2) -->
<path class="cell-path" d="M-7.8438244 -2.1017454L-6.250087 2.036537E-06L-4.6465626 -1.2450421L-5.4127345 -3.1250422Z"/>
<!-- (0, 9, 3) -->
<path class="cell-path" d="M-6.250087 2.036537E-06L-4.6465626 1.245044L-3.7024567 1.2064136E-06L-4.6465635 -1.245041Z"/>
<!-- (0, 9, 4) -->
<path class="cell-path" d="M-4.646562 1.2450439L-3.2064207 1.8512288L-2.7525527 0.73754513L-3.7024567 1.2064136E-06Z"/>
<!-- (0, 9, 5) -->
<path class="cell-path" d="M-3.2064207 1.8512288L-2.0150082 2.015009L-1.899435 1.0966399L-2.7525527 0.73754513Z"/>
<!-- (0, 9, 6) -->
<path class="cell-path" d="M-2.0150082 2.015009L-1.0966393 1.8994354L-1.1936604 1.1936609L-1.8994353 1.09664Z"/>
<!-- (0, 9, 7) -->
<path class="cell-path" d="M-1.0966393 1.8994354L-0.43690997 1.6305707L-0.6496325 1.1251968L-1.1936604 1.1936609Z"/>
<!-- (0, 9, 8) -->
<path class="cell-path" d="M-0.43690997 1.6305707L1.5493582E-08 1.2992651L-0.25881884 0.96592534L-0.6496325 1.1251968Z"/>
<!-- (0, 9, 9) -->
<path class="cell-path" d="M1.5493583E-08 1.2992653L0.2588189 0.96592534L9.178164E-09 0.76966506L-0.25881886 0.96592546Z"/>
<!-- (0, 9, 10) -->
<path class="cell-path" d="M0.25881884 0.96592516L0.38483238 0.6665494L0.15332036 0.57219946L9.178162E-09 0.76966494Z"/>
<!-- (0, 9, 11) -->
<path class="cell-path" d="M0.3848324 0.66654944L0.418879 0.41887912L0.22796887 0.39485377L0.15332036 0.57219946Z"/>
<!-- (0, 10, 1) -->
<path class="cell-path" d="M-13.241098 -3.5479362L-10.550721 3.4378616E-06L-7.843827 -2.101744L-9.137195 -5.2753563Z"/>
<!-- (0, 10, 2) -->
<path class="cell-path" d="M-10.550719 3.4378609E-06L-7.8438234 2.1017485L-6.250086 2.0365364E-06L-7.8438253 -2.1017435Z"/>
<!-- (0, 10, 3) -->
<path class="cell-path" d="M-7.8438234 2.1017485L-5.412733 3.1250446L-4.646562 1.2450439L-6.250087 2.036537E-06Z"/>
<!-- (0, 10, 4) -->
<path class="cell-path" d="M-5.412732 3.125044L-3.4015188 3.40152L-3.2064207 1.8512288L-4.646562 1.2450439Z"/>
<!-- (0, 10, 5) -->
<path class="cell-path" d="M-3.4015188 3.40152L-1.8512278 3.2064214L-2.015008 2.0150087L-3.2064207 1.8512288Z"/>
<!-- (0, 10, 6) -->
<path class="cell-path" d="M-1.8512278 3.2064214L-0.7375442 2.752553L-1.0966393 1.8994354L-2.0150082 2.015009Z"/>
<!-- (0, 10, 7) -->
<path class="cell-path" d="M-0.7375428 2.7525532L1.0719914E-06 2.1932788L-0.4369092 1.6305708L-1.0966384 1.899436Z"/>
<!-- (0, 10, 8) -->
<path class="cell-path" d="M2.6154584E-08 2.1932786L0.43690997 1.6305704L1.549358E-08 1.299265L-0.43690994 1.6305705Z"/>
<!-- (0, 10, 9) -->
<path class="cell-path" d="M0.43691078 1.6305704L0.64963305 1.1251963L0.2588193 0.96592516L6.3503154E-07 1.2992653Z"/>
<!-- (0, 10, 10) -->
<path class="cell-path" d="M0.64963233 1.1251965L0.7071062 0.7071064L0.38483238 0.6665494L0.25881884 0.96592516Z"/>
<!-- (0, 10, 11) -->
<path class="cell-path" d="M0.70710653 0.70710605L0.66654944 0.38483226L0.4188792 0.4188789L0.38483274 0.66654927Z"/>
<!-- (0, 11, 2) -->
<path class="cell-path" d="M-13.241092 3.5479438L-9.13719 5.2753615L-7.8438234 2.1017485L-10.550719 3.4378609E-06Z"/>
<!-- (0, 11, 3) -->
<path class="cell-path" d="M-9.13719 5.2753615L-5.742077 5.742079L-5.412732 3.125044L-7.8438234 2.1017485Z"/>
<!-- (0, 11, 4) -->
<path class="cell-path" d="M-5.742077 5.742079L-3.1250422 5.412733L-3.4015188 3.40152L-5.412732 3.125044Z"/>
<!-- (0, 11, 5) -->
<path class="cell-path" d="M-3.1250422 5.412733L-1.2450422 4.646562L-1.8512275 3.206421L-3.4015188 3.40152Z"/>
<!-- (0, 11, 6) -->
<path class="cell-path" d="M-1.24504 4.6465626L1.8096201E-06 3.7024562L-0.7375428 2.7525532L-1.8512262 3.206422Z"/>
<!-- (0, 11, 7) -->
<path class="cell-path" d="M4.4151342E-08 3.7024558L0.7375441 2.7525525L2.6154584E-08 2.1932786L-0.7375441 2.752553Z"/>
<!-- (0, 11, 8) -->
<path class="cell-path" d="M0.73754543 2.752552L1.0966401 1.8994346L0.4369107 1.63057L1.0719913E-06 2.1932786Z"/>
<!-- (0, 11, 9) -->
<path class="cell-path" d="M1.096639 1.899435L1.1936601 1.1936605L0.6496324 1.1251966L0.43691 1.6305705Z"/>
<!-- (0, 11, 10) -->
<path class="cell-path" d="M1.1936606 1.1936599L1.1251966 0.6496321L0.7071065 0.707106L0.64963293 1.1251962Z"/>
<!-- (0, 11, 11) -->
<path class="cell-path" d="M1.1251963 0.6496327L0.96592504 0.2588191L0.66654927 0.3848326L0.7071062 0.7071064Z"/>
<!-- (0, 12, 3) -->
<path class="cell-path" d="M-9.693153 9.693157L-5.2753596 9.137193L-5.7420783 5.74208L-9.137191 5.2753625Z"/>
<!-- (0, 12, 4) -->
<path class="cell-path" d="M-5.2753587 9.137192L-2.1017458 7.8438244L-3.1250424 5.4127336L-5.742077 5.742079Z"/>
<!-- (0, 12, 5) -->
<path class="cell-path" d="M-2.1017458 7.8438244L7.453154E-08 6.250087L-1.2450423 4.6465626L-3.125043 5.412734Z"/>
<!-- (0, 12, 6) -->
<path class="cell-path" d="M7.453154E-08 6.250087L1.2450426 4.6465626L4.4151353E-08 3.7024567L-1.2450424 4.646563Z"/>
<!-- (0, 12, 7) -->
<path class="cell-path" d="M1.2450446 4.6465616L1.8512294 3.2064204L0.73754555 2.7525525L1.8096204E-06 3.7024567Z"/>
<!-- (0, 12, 8) -->
<path class="cell-path" d="M1.8512278 3.2064214L2.0150082 2.015009L1.0966393 1.8994354L0.73754424 2.752553Z"/>
<!-- (0, 12, 9) -->
<path class="cell-path" d="M2.0150092 2.015008L1.8994358 1.096639L1.193661 1.1936601L1.0966405 1.8994352Z"/>
<!-- (0, 12, 10) -->
<path class="cell-path" d="M1.8994348 1.0966396L1.6305703 0.43691042L1.1251965 0.64963275L1.1936603 1.1936606Z"/>
<!-- (0, 12, 11) -->
<path class="cell-path" d="M1.6305707 0.43690974L1.2992651 -2.2717073E-07L0.96592534 0.2588187L1.1251969 0.64963233Z"/>
<!-- (0, 13, 4) -->
<path class="cell-path" d="M-3.547933 13.241096L5.1567913E-06 10.550719L-2.1017423 7.843826L-5.2753544 9.137194Z"/>
<!-- (0, 13, 5) -->
<path class="cell-path" d="M5.1567913E-06 10.550719L2.1017497 7.843823L3.054805E-06 6.250086L-2.1017423 7.843826Z"/>
<!-- (0, 13, 6) -->
<path class="cell-path" d="M2.1017497 7.843823L3.1250455 5.4127326L1.2450446 4.6465616L3.0548053E-06 6.250087Z"/>
<!-- (0, 13, 7) -->
<path class="cell-path" d="M3.125045 5.412732L3.4015205 3.401518L1.8512294 3.2064204L1.2450446 4.6465616Z"/>
<!-- (0, 13, 8) -->
<path class="cell-path" d="M3.4015205 3.401518L3.2064219 1.8512273L2.0150092 2.0150077L1.8512294 3.2064204Z"/>
<!-- (0, 13, 9) -->
<path class="cell-path" d="M3.2064219 1.8512273L2.752553 0.73754376L1.8994358 1.096639L2.0150092 2.015008Z"/>
<!-- (0, 13, 10) -->
<path class="cell-path" d="M2.7525527 0.73754364L2.1932786 -3.83485E-07L1.6305703 0.43690965L1.8994353 1.0966388Z"/>
<!-- (0, 13, 11) -->
<path class="cell-path" d="M2.1932786 -3.83485E-07L1.6305704 -0.4369102L1.299265 -2.2717072E-07L1.6305705 0.4369097Z"/>
<!-- (0, 14, 5) -->
<path class="cell-path" d="M3.5479457 13.241091L5.2753634 9.137189L2.1017497 7.843823L5.1567913E-06 10.550719Z"/>
<!-- (0, 14, 6) -->
<path class="cell-path" d="M5.2753634 9.137189L5.7420797 5.742076L3.125045 5.412732L2.1017497 7.843823Z"/>
<!-- (0, 14, 7) -->
<path class="cell-path" d="M5.7420797 5.742076L5.4127336 3.1250412L3.4015205 3.401518L3.125045 5.412732Z"/>
<!-- (0, 14, 8) -->
<path class="cell-path" d="M5.4127336 3.1250412L4.646562 1.2450415L3.2064214 1.851227L3.4015205 3.401518Z"/>
<!-- (0, 14, 9) -->
<path class="cell-path" d="M4.646562 1.2450415L3.7024562 -6.4735804E-07L2.752553 0.7375437L3.2064219 1.8512273Z"/>
<!-- (0, 14, 10) -->
<path class="cell-path" d="M3.7024553 -6.4735787E-07L2.7525525 -0.73754454L2.1932783 -3.8348497E-07L2.7525527 0.73754364Z"/>
<!-- (0, 14, 11) -->
<path class="cell-path" d="M2.7525525 -0.73754454L1.8994349 -1.0966394L1.6305703 -0.43691018L2.1932786 -3.83485E-07Z"/>
<!-- (0, 15, 6) -->
<path class="cell-path" d="M9.693156 9.69315L9.137193 5.2753572L5.7420797 5.742076L5.2753634 9.137189Z"/>
<!-- (0, 15, 7) -->
<path class="cell-path" d="M9.137196 5.2753525L7.843826 2.1017408L5.4127355 3.1250389L5.7420826 5.7420735Z"/>
<!-- (0, 15, 8) -->
<path class="cell-path" d="M7.843823 2.1017442L6.2500854 -1.0927996E-06L4.646561 1.2450413L5.4127336 3.1250412Z"/>
<!-- (0, 15, 9) -->
<path class="cell-path" d="M6.2500854 -4.073073E-06L4.646561 -1.2450452L3.7024558 -2.4128265E-06L4.6465626 1.2450392Z"/>
<!-- (0, 15, 10) -->
<path class="cell-path" d="M4.6465607 -1.2450427L3.2064202 -1.8512279L2.752552 -0.7375444L3.7024553 -6.4735787E-07Z"/>
<!-- (0, 15, 11) -->
<path class="cell-path" d="M3.2064195 -1.8512294L2.0150073 -2.0150092L1.8994342 -1.0966402L2.752552 -0.73754585Z"/>
<!-- (0, 16, 7) -->
<path class="cell-path" d="M13.241094 3.5479372L10.550719 -1.8447463E-06L7.8438244 2.1017447L9.137193 5.2753572Z"/>
<!-- (0, 16, 8) -->
<path class="cell-path" d="M10.550716 -6.87572E-06L7.8438215 -2.1017504L6.2500844 -4.073072E-06L7.843824 2.1017404Z"/>
<!-- (0, 16, 9) -->
<path class="cell-path" d="M7.8438225 -2.1017468L5.4127326 -3.1250432L4.646561 -1.2450428L6.2500854 -1.0927996E-06Z"/>
<!-- (0, 16, 10) -->
<path class="cell-path" d="M5.4127297 -3.125045L3.4015167 -3.40152L3.206419 -1.8512292L4.6465597 -1.2450448Z"/>
<!-- (0, 16, 11) -->
<path class="cell-path" d="M3.4015183 -3.4015183L1.8512279 -3.2064202L2.015008 -2.015008L3.2064202 -1.8512279Z"/>
<!-- (0, 17, 8) -->
<path class="cell-path" d="M13.24109 -3.547941L9.137188 -5.2753587L7.8438225 -2.1017468L10.550716 -1.8447458E-06Z"/>
<!-- (0, 17, 9) -->
<path class="cell-path" d="M9.137186 -5.2753634L5.7420735 -5.7420793L5.41273 -3.1250453L7.8438215 -2.1017504Z"/>
<!-- (0, 17, 10) -->
<path class="cell-path" d="M5.742075 -5.742075L3.1250424 -5.412731L3.401518 -3.401518L5.412731 -3.1250424Z"/>
<!-- (0, 17, 11) -->
<path class="cell-path" d="M3.1250396 -5.412733L1.2450403 -4.646561L1.851226 -3.2064207L3.4015167 -3.40152Z"/>
<!-- (0, 18, 9) -->
<path class="cell-path" d="M9.6931505 -9.6931505L5.2753587 -9.137188L5.7420764 -5.7420764L9.137188 -5.2753587Z"/>
<!-- (0, 18, 10) -->
<path class="cell-path" d="M5.275353 -9.137189L2.1017423 -7.8438215L3.125039 -5.412732L5.742072 -5.742078Z"/>
<!-- (0, 18, 11) -->
<path class="cell-path" d="M2.101746 -7.8438206L8.6920494E-07 -6.250084L1.2450424 -4.64656L3.1250424 -5.412731Z"/>
<!-- (0, 19, 10) -->
<path class="cell-path" d="M3.5479271 -13.241091L-8.5946485E-06 -10.5507145L2.1017387 -7.8438225L5.2753487 -9.137192Z"/>
<!-- (0, 19, 11) -->
<path class="cell-path" d="M-3.5636751E-06 -10.5507145L-2.1017513 -7.843819L-2.111067E-06 -6.250083L2.1017423 -7.8438215Z"/>
</svg>
